<svg width="430" height="200" viewBox="0 0 430 200" fill="none" xmlns="http://www.w3.org/2000/svg">
<rect width="430" height="200" fill="white"/>
<path d="M128.08 80.08V87.43H172.81V80.08H128.08ZM120.8 92.47V99.82H179.53V92.47H120.8ZM128.08 68.11V84.28H137.32V68.11H128.08ZM127.45 103.46V110.46H163.29V114.03H127.52V126.42H136.83V120.47H172.6V103.46H127.45ZM127.52 124.46V131.53H174.49V124.46H127.52ZM145.58 84.49V96.81H154.82V84.49H145.58ZM202.555 71.89C192.685 71.89 185.545 80.85 185.545 94.99C185.545 109.27 192.685 118.23 202.555 118.23C212.425 118.23 219.565 109.27 219.565 94.99C219.565 80.85 212.425 71.89 202.555 71.89ZM202.555 80.36C207.385 80.36 210.675 85.47 210.675 94.99C210.675 104.65 207.385 109.83 202.555 109.83C197.725 109.83 194.505 104.65 194.505 94.99C194.505 85.47 197.725 80.36 202.555 80.36ZM226.635 67.41V132.23H236.015V67.41H226.635ZM233.915 91.84V99.54H245.395V91.84H233.915ZM282.279 87.64V95.13H299.359V87.64H282.279ZM264.639 72.38V81.76C264.639 94.08 259.739 106.61 248.679 111.72L254.489 119.21C266.669 113.12 272.199 98.07 272.199 81.76V72.38H264.639ZM266.599 72.38V81.76C266.599 97.93 271.709 112.21 283.889 118.09L289.419 110.67C278.709 105.91 274.019 94.08 274.019 81.76V72.38H266.599ZM294.739 67.34V132.37H303.979V67.34H294.739Z" fill="black"/>
</svg>
